<?xml version="1.0" encoding="UTF-8" standalone="no"?>
<!-- Created with Inkscape (http://www.inkscape.org/) -->

<svg
   width="40mm"
   height="50mm"
   viewBox="0 0 40 50"
   version="1.1"
   id="svg1"
   inkscape:version="1.3.1 (9b9bdc1480, 2023-11-25, custom)"
   sodipodi:docname="duckjaws3.svg"
   xmlns:inkscape="http://www.inkscape.org/namespaces/inkscape"
   xmlns:sodipodi="http://sodipodi.sourceforge.net/DTD/sodipodi-0.dtd"
   xmlns="http://www.w3.org/2000/svg"
   xmlns:svg="http://www.w3.org/2000/svg">
  <sodipodi:namedview
     id="namedview1"
     pagecolor="#ffffff"
     bordercolor="#000000"
     borderopacity="0.25"
     inkscape:showpageshadow="2"
     inkscape:pageopacity="0.0"
     inkscape:pagecheckerboard="0"
     inkscape:deskcolor="#d1d1d1"
     inkscape:document-units="mm"
     inkscape:zoom="5.762625"
     inkscape:cx="51.625778"
     inkscape:cy="144.98601"
     inkscape:window-width="1452"
     inkscape:window-height="1214"
     inkscape:window-x="26"
     inkscape:window-y="23"
     inkscape:window-maximized="0"
     inkscape:current-layer="layer1" />
  <defs
     id="defs1" />
  <g
     inkscape:label="Layer 1"
     inkscape:groupmode="layer"
     id="layer1">
    <path
       id="path1"
       style="stroke-width:0.264583"
       inkscape:transform-center-x="0.1519459"
       inkscape:transform-center-y="-3.7254648"
       d="m 15.95745,6.3489406 c -0.828535,-0.017615 -2.289641,0.7842496 -3.207442,1.4103127 -0.530351,0.3617702 -0.818356,0.8852592 -1.260455,1.3091301 -0.193837,0.185845 -0.428934,0.346975 -0.609518,0.5402606 -0.149411,0.1599196 -0.149346,0.460227 -0.198202,0.62308 -0.146361,0.487863 -0.509136,0.930656 -0.51094,0.99635 -2.0862772,3.291855 -3.0956853,8.537859 -2.4257785,9.75732 0.6279848,1.143149 6.9007725,1.254168 8.2047025,1.223948 1.390979,-0.03224 7.520743,0.02702 8.252281,-1.159245 0.694782,-1.126664 -0.669548,-6.877434 -3.032753,-9.992348 0,0 -0.299471,-0.570576 -0.338853,-0.822987 C 20.797345,10.022312 20.80156,9.7551216 20.513121,9.5230529 20.411896,9.4416107 20.276576,9.3872867 20.174248,9.3066315 19.516967,8.7885586 19.122793,8.0955659 18.42889,7.6053944 17.703807,7.0931982 16.833105,6.3675573 15.95745,6.3489406 Z"
       transform="matrix(2.3786506,0,0,3.1547615,-17.916497,-20.024303)"
       sodipodi:nodetypes="saasscssscssaas" />
    <path
       id="path8"
       style="fill:#ffffff;stroke-width:0.329168"
       d="m 12.332539,12.449383 c 4.038173,0.884044 10.681261,0.707631 14.049019,-0.180845 5.312245,-1.401467 5.955451,5.920603 8.919076,11.275257 2.03445,3.67583 2.701048,8.213205 0.950177,12.465241 C 33.922632,41.66308 30.669375,47.453655 25.440904,45.698048 21.129056,44.250222 17.04429,44.544423 13.773343,45.570887 8.9899427,47.071977 5.6388198,43.099584 3.1218578,37.693207 1.1536792,33.465604 2.2055605,27.69026 4.1378571,23.9727 6.8819165,18.693383 6.996493,11.281206 12.332539,12.449383 Z"
       sodipodi:nodetypes="sssssssss" />
    <path
       id="rect1"
       style="fill:#000000;stroke-width:0.287642;fill-opacity:1"
       d="m 14.622466,15.852477 c 3.742631,0.730403 7.17577,0.731914 10.297491,0 4.924151,-1.154509 8.251319,4.148514 9.129391,9.129392 0.57227,3.246213 1.679351,6.481007 1.023943,9.753434 -0.993237,4.959197 -5.173676,9.427917 -10.020173,7.981672 -3.996839,-1.192698 -7.784412,-0.9538 -10.81517,-0.104753 C 9.3677629,43.976574 4.7740508,40.299396 4.3806104,35.25704 4.1133631,31.831983 5.0026436,28.406926 5.4930739,24.981869 6.2099663,19.975251 9.6584305,14.883708 14.622466,15.852477 Z"
       sodipodi:nodetypes="sssssssss" />
    <path
       id="path9"
       style="fill:#2d2d2d;fill-opacity:1;stroke-width:0.225435"
       d="m 15.083972,19.524496 c 3.411488,0.492188 6.540868,0.493206 9.386384,0 4.488468,-0.777976 7.521253,2.795513 8.321635,6.15192 0.521636,2.18749 1.530765,4.367284 0.933346,6.572438 -0.905356,3.341798 -4.715917,6.353085 -9.133603,5.37852 -0.910801,-0.200927 -1.80968,-0.341562 -2.688839,-0.430552 -0.43958,-0.04449 0.510073,-2.631625 0.08133,-2.651379 -0.428745,-0.01975 -4.680719,-0.0091 -5.096679,-0.0063 -0.831919,0.0056 0.808513,2.591267 0.03943,2.674253 -0.769084,0.08299 -1.50285,0.200328 -2.1935,0.343362 C 10.294197,38.476162 6.10693,35.998263 5.7483006,32.600427 5.504699,30.292423 6.3152972,27.984418 6.762335,25.676412 c 0.6534628,-3.373752 3.796812,-6.804734 8.321637,-6.15192 z"
       sodipodi:nodetypes="sssssccccsssss" />
    <path
       sodipodi:type="star"
       style="fill:#a3a3a3;fill-opacity:1;stroke-width:0.264583"
       id="path2"
       inkscape:flatsided="false"
       sodipodi:sides="3"
       sodipodi:cx="14.275601"
       sodipodi:cy="16.80794"
       sodipodi:r1="2.0495272"
       sodipodi:r2="1.3170718"
       sodipodi:arg1="1.5898557"
       sodipodi:arg2="2.5872109"
       inkscape:rounded="0.15998591"
       inkscape:randomized="0"
       d="m 14.236541,18.857094 c -0.277262,0.0085 -0.946655,-1.112995 -1.080748,-1.355824 -0.144109,-0.260968 -0.776321,-1.489096 -0.635282,-1.751735 0.131237,-0.244385 1.43721,-0.26333 1.714553,-0.258043 0.29806,0.0057 1.677755,0.07223 1.834688,0.325697 0.146025,0.235847 -0.490555,1.376326 -0.633805,1.613868 -0.15395,0.255286 -0.901434,1.416862 -1.199406,1.426037 z"
       inkscape:transform-center-x="0.80346065"
       inkscape:transform-center-y="-0.69410175"
       transform="matrix(1.0040038,-0.10707033,0.37821447,2.0177163,-7.071322,-13.289454)" />
    <path
       sodipodi:type="star"
       style="fill:#a3a3a3;fill-opacity:1;stroke-width:0.264583"
       id="path3"
       inkscape:flatsided="false"
       sodipodi:sides="3"
       sodipodi:cx="14.275601"
       sodipodi:cy="16.80794"
       sodipodi:r1="2.0495272"
       sodipodi:r2="1.3170718"
       sodipodi:arg1="1.5898557"
       sodipodi:arg2="2.5872109"
       inkscape:rounded="0.15998591"
       inkscape:randomized="0"
       d="m 14.236541,18.857094 c -0.277262,0.0085 -0.946655,-1.112995 -1.080748,-1.355824 -0.144109,-0.260968 -0.776321,-1.489096 -0.635282,-1.751735 0.131237,-0.244385 1.43721,-0.26333 1.714553,-0.258043 0.29806,0.0057 1.677755,0.07223 1.834688,0.325697 0.146025,0.235847 -0.490555,1.376326 -0.633805,1.613868 -0.15395,0.255286 -0.901434,1.416862 -1.199406,1.426037 z"
       inkscape:transform-center-x="-0.69626491"
       inkscape:transform-center-y="-0.69410175"
       transform="matrix(-1.0077531,-0.10707033,-0.30755887,2.0177163,45.863688,-13.189519)" />
    <path
       sodipodi:type="star"
       style="fill:#a3a3a3;fill-opacity:1;stroke-width:0.264583"
       id="path4"
       inkscape:flatsided="false"
       sodipodi:sides="3"
       sodipodi:cx="14.275601"
       sodipodi:cy="16.80794"
       sodipodi:r1="2.0495272"
       sodipodi:r2="1.3170718"
       sodipodi:arg1="1.5898557"
       sodipodi:arg2="2.5872109"
       inkscape:rounded="0.15998591"
       inkscape:randomized="0"
       d="m 14.236541,18.857094 c -0.277262,0.0085 -0.946655,-1.112995 -1.080748,-1.355824 -0.144109,-0.260968 -0.776321,-1.489096 -0.635282,-1.751735 0.131237,-0.244385 1.43721,-0.26333 1.714553,-0.258043 0.29806,0.0057 1.677755,0.07223 1.834688,0.325697 0.146025,0.235847 -0.490555,1.376326 -0.633805,1.613868 -0.15395,0.255286 -0.901434,1.416862 -1.199406,1.426037 z"
       inkscape:transform-center-x="-0.73231888"
       inkscape:transform-center-y="-0.86908979"
       transform="matrix(-0.59195624,-0.81525474,-0.50268807,1.6500683,46.621391,4.5856605)" />
    <path
       sodipodi:type="star"
       style="fill:#a3a3a3;fill-opacity:1;stroke-width:0.264583"
       id="path5"
       inkscape:flatsided="false"
       sodipodi:sides="3"
       sodipodi:cx="14.275601"
       sodipodi:cy="16.80794"
       sodipodi:r1="2.0495272"
       sodipodi:r2="1.3170718"
       sodipodi:arg1="1.5898557"
       sodipodi:arg2="2.5872109"
       inkscape:rounded="0.15998591"
       inkscape:randomized="0"
       d="m 14.236541,18.857094 c -0.277262,0.0085 -0.946655,-1.112995 -1.080748,-1.355824 -0.144109,-0.260968 -0.776321,-1.489096 -0.635282,-1.751735 0.131237,-0.244385 1.43721,-0.26333 1.714553,-0.258043 0.29806,0.0057 1.677755,0.07223 1.834688,0.325697 0.146025,0.235847 -0.490555,1.376326 -0.633805,1.613868 -0.15395,0.255286 -0.901434,1.416862 -1.199406,1.426037 z"
       inkscape:transform-center-x="0.67193422"
       inkscape:transform-center-y="-0.85364196"
       transform="matrix(0.66162701,-0.77253162,0.35633742,1.6854125,-5.4915021,3.1512112)" />
    <path
       sodipodi:type="star"
       style="fill:#a3a3a3;fill-opacity:1;stroke-width:0.264583"
       id="path6"
       inkscape:flatsided="false"
       sodipodi:sides="3"
       sodipodi:cx="14.275601"
       sodipodi:cy="16.80794"
       sodipodi:r1="2.0495272"
       sodipodi:r2="1.3170718"
       sodipodi:arg1="1.5898557"
       sodipodi:arg2="2.5872109"
       inkscape:rounded="0.15998591"
       inkscape:randomized="0"
       d="m 14.236541,18.857094 c -0.277262,0.0085 -0.946655,-1.112995 -1.080748,-1.355824 -0.144109,-0.260968 -0.776321,-1.489096 -0.635282,-1.751735 0.131237,-0.244385 1.43721,-0.26333 1.714553,-0.258043 0.29806,0.0057 1.677755,0.07223 1.834688,0.325697 0.146025,0.235847 -0.490555,1.376326 -0.633805,1.613868 -0.15395,0.255286 -0.901434,1.416862 -1.199406,1.426037 z"
       inkscape:transform-center-x="-0.49146267"
       inkscape:transform-center-y="-0.90230968"
       transform="matrix(-0.94195247,0.22087066,-0.18744404,2.2031626,38.831586,-20.128092)" />
    <path
       sodipodi:type="star"
       style="fill:#a3a3a3;fill-opacity:1;stroke-width:0.264583"
       id="path7"
       inkscape:flatsided="false"
       sodipodi:sides="3"
       sodipodi:cx="14.275601"
       sodipodi:cy="16.80794"
       sodipodi:r1="2.0495272"
       sodipodi:r2="1.3170718"
       sodipodi:arg1="1.5898557"
       sodipodi:arg2="2.5872109"
       inkscape:rounded="0.15998591"
       inkscape:randomized="0"
       d="m 14.236541,18.857094 c -0.277262,0.0085 -0.946655,-1.112995 -1.080748,-1.355824 -0.144109,-0.260968 -0.776321,-1.489096 -0.635282,-1.751735 0.131237,-0.244385 1.43721,-0.26333 1.714553,-0.258043 0.29806,0.0057 1.677755,0.07223 1.834688,0.325697 0.146025,0.235847 -0.490555,1.376326 -0.633805,1.613868 -0.15395,0.255286 -0.901434,1.416862 -1.199406,1.426037 z"
       inkscape:transform-center-x="0.68695328"
       inkscape:transform-center-y="-0.87996826"
       transform="matrix(0.95414275,0.21540219,0.30904087,2.1486151,-0.78039607,-19.231628)" />
    <path
       sodipodi:type="star"
       style="fill:#a3a3a3;fill-opacity:1;stroke-width:0.264583"
       id="path10"
       inkscape:flatsided="false"
       sodipodi:sides="3"
       sodipodi:cx="14.275601"
       sodipodi:cy="16.80794"
       sodipodi:r1="2.0495272"
       sodipodi:r2="1.3170718"
       sodipodi:arg1="1.5898557"
       sodipodi:arg2="2.5872109"
       inkscape:rounded="0.15998591"
       inkscape:randomized="0"
       d="m 14.236541,18.857094 c -0.277262,0.0085 -0.946655,-1.112995 -1.080748,-1.355824 -0.144109,-0.260968 -0.776321,-1.489096 -0.635282,-1.751735 0.131237,-0.244385 1.43721,-0.26333 1.714553,-0.258043 0.29806,0.0057 1.677755,0.07223 1.834688,0.325697 0.146025,0.235847 -0.490555,1.376326 -0.633805,1.613868 -0.15395,0.255286 -0.901434,1.416862 -1.199406,1.426037 z"
       inkscape:transform-center-x="-0.5537252"
       inkscape:transform-center-y="0.74257636"
       transform="matrix(-0.80144531,0.4448394,-0.24459524,-1.9146317,45.017403,64.394922)" />
    <path
       sodipodi:type="star"
       style="fill:#a3a3a3;fill-opacity:1;stroke-width:0.264583"
       id="path11"
       inkscape:flatsided="false"
       sodipodi:sides="3"
       sodipodi:cx="14.275601"
       sodipodi:cy="16.80794"
       sodipodi:r1="2.0495272"
       sodipodi:r2="1.3170718"
       sodipodi:arg1="1.5898557"
       sodipodi:arg2="2.5872109"
       inkscape:rounded="0.15998591"
       inkscape:randomized="0"
       d="m 14.236541,18.857094 c -0.277262,0.0085 -0.946655,-1.112995 -1.080748,-1.355824 -0.144109,-0.260968 -0.776321,-1.489096 -0.635282,-1.751735 0.131237,-0.244385 1.43721,-0.26333 1.714553,-0.258043 0.29806,0.0057 1.677755,0.07223 1.834688,0.325697 0.146025,0.235847 -0.490555,1.376326 -0.633805,1.613868 -0.15395,0.255286 -0.901434,1.416862 -1.199406,1.426037 z"
       inkscape:transform-center-x="-0.70812855"
       inkscape:transform-center-y="0.81124628"
       transform="matrix(-0.52662584,0.84200255,-0.61185763,-1.3503254,50.163109,46.705661)" />
    <path
       sodipodi:type="star"
       style="fill:#a3a3a3;fill-opacity:1;stroke-width:0.264583"
       id="path13"
       inkscape:flatsided="false"
       sodipodi:sides="3"
       sodipodi:cx="14.275601"
       sodipodi:cy="16.80794"
       sodipodi:r1="2.0495272"
       sodipodi:r2="1.3170718"
       sodipodi:arg1="1.5898557"
       sodipodi:arg2="2.5872109"
       inkscape:rounded="0.15998591"
       inkscape:randomized="0"
       d="m 14.236541,18.857094 c -0.277262,0.0085 -0.946655,-1.112995 -1.080748,-1.355824 -0.144109,-0.260968 -0.776321,-1.489096 -0.635282,-1.751735 0.131237,-0.244385 1.43721,-0.26333 1.714553,-0.258043 0.29806,0.0057 1.677755,0.07223 1.834688,0.325697 0.146025,0.235847 -0.490555,1.376326 -0.633805,1.613868 -0.15395,0.255286 -0.901434,1.416862 -1.199406,1.426037 z"
       inkscape:transform-center-x="-0.42002314"
       inkscape:transform-center-y="0.77468989"
       transform="matrix(-0.92910816,-0.09891701,-0.14502609,-2.0603178,41.269939,74.83741)" />
    <path
       sodipodi:type="star"
       style="fill:#a3a3a3;fill-opacity:1;stroke-width:0.264583"
       id="path16"
       inkscape:flatsided="false"
       sodipodi:sides="3"
       sodipodi:cx="14.275601"
       sodipodi:cy="16.80794"
       sodipodi:r1="2.0495272"
       sodipodi:r2="1.3170718"
       sodipodi:arg1="1.5898557"
       sodipodi:arg2="2.5872109"
       inkscape:rounded="0.15998591"
       inkscape:randomized="0"
       d="m 14.236541,18.857094 c -0.277262,0.0085 -0.946655,-1.112995 -1.080748,-1.355824 -0.144109,-0.260968 -0.776321,-1.489096 -0.635282,-1.751735 0.131237,-0.244385 1.43721,-0.26333 1.714553,-0.258043 0.29806,0.0057 1.677755,0.07223 1.834688,0.325697 0.146025,0.235847 -0.490555,1.376326 -0.633805,1.613868 -0.15395,0.255286 -0.901434,1.416862 -1.199406,1.426037 z"
       inkscape:transform-center-x="0.028223062"
       inkscape:transform-center-y="0.79647891"
       transform="matrix(-0.92560091,-0.04635016,0.12797024,-2.1909465,32.947481,75.828117)" />
    <path
       sodipodi:type="star"
       style="fill:#a3a3a3;fill-opacity:1;stroke-width:0.264583"
       id="path19"
       inkscape:flatsided="false"
       sodipodi:sides="3"
       sodipodi:cx="14.275601"
       sodipodi:cy="16.80794"
       sodipodi:r1="2.0495272"
       sodipodi:r2="1.3170718"
       sodipodi:arg1="1.5898557"
       sodipodi:arg2="2.5872109"
       inkscape:rounded="0.15998591"
       inkscape:randomized="0"
       d="m 14.236541,18.857094 c -0.277262,0.0085 -0.946655,-1.112995 -1.080748,-1.355824 -0.144109,-0.260968 -0.776321,-1.489096 -0.635282,-1.751735 0.131237,-0.244385 1.43721,-0.26333 1.714553,-0.258043 0.29806,0.0057 1.677755,0.07223 1.834688,0.325697 0.146025,0.235847 -0.490555,1.376326 -0.633805,1.613868 -0.15395,0.255286 -0.901434,1.416862 -1.199406,1.426037 z"
       inkscape:transform-center-x="0.55372535"
       inkscape:transform-center-y="0.74257636"
       transform="matrix(0.80144531,0.4448394,0.24459524,-1.9146317,-6.0638302,64.311475)" />
    <path
       sodipodi:type="star"
       style="fill:#a3a3a3;fill-opacity:1;stroke-width:0.264583"
       id="path20"
       inkscape:flatsided="false"
       sodipodi:sides="3"
       sodipodi:cx="14.275601"
       sodipodi:cy="16.80794"
       sodipodi:r1="2.0495272"
       sodipodi:r2="1.3170718"
       sodipodi:arg1="1.5898557"
       sodipodi:arg2="2.5872109"
       inkscape:rounded="0.15998591"
       inkscape:randomized="0"
       d="m 14.236541,18.857094 c -0.277262,0.0085 -0.946655,-1.112995 -1.080748,-1.355824 -0.144109,-0.260968 -0.776321,-1.489096 -0.635282,-1.751735 0.131237,-0.244385 1.43721,-0.26333 1.714553,-0.258043 0.29806,0.0057 1.677755,0.07223 1.834688,0.325697 0.146025,0.235847 -0.490555,1.376326 -0.633805,1.613868 -0.15395,0.255286 -0.901434,1.416862 -1.199406,1.426037 z"
       inkscape:transform-center-x="0.6303414"
       inkscape:transform-center-y="0.84342401"
       transform="matrix(0.39606911,0.92896759,0.80583017,-1.2785416,-12.495239,44.152948)" />
    <path
       sodipodi:type="star"
       style="fill:#a3a3a3;fill-opacity:1;stroke-width:0.264583"
       id="path21"
       inkscape:flatsided="false"
       sodipodi:sides="3"
       sodipodi:cx="14.275601"
       sodipodi:cy="16.80794"
       sodipodi:r1="2.0495272"
       sodipodi:r2="1.3170718"
       sodipodi:arg1="1.5898557"
       sodipodi:arg2="2.5872109"
       inkscape:rounded="0.15998591"
       inkscape:randomized="0"
       d="m 14.236541,18.857094 c -0.277262,0.0085 -0.946655,-1.112995 -1.080748,-1.355824 -0.144109,-0.260968 -0.776321,-1.489096 -0.635282,-1.751735 0.131237,-0.244385 1.43721,-0.26333 1.714553,-0.258043 0.29806,0.0057 1.677755,0.07223 1.834688,0.325697 0.146025,0.235847 -0.490555,1.376326 -0.633805,1.613868 -0.15395,0.255286 -0.901434,1.416862 -1.199406,1.426037 z"
       inkscape:transform-center-x="0.27268452"
       inkscape:transform-center-y="0.72842663"
       transform="matrix(0.91785853,0.02960329,0.05645548,-2.0681197,-0.76148556,73.254762)" />
    <path
       sodipodi:type="star"
       style="fill:#a3a3a3;fill-opacity:1;stroke-width:0.264583"
       id="path22"
       inkscape:flatsided="false"
       sodipodi:sides="3"
       sodipodi:cx="14.275601"
       sodipodi:cy="16.80794"
       sodipodi:r1="2.0495272"
       sodipodi:r2="1.3170718"
       sodipodi:arg1="1.5898557"
       sodipodi:arg2="2.5872109"
       inkscape:rounded="0.15998591"
       inkscape:randomized="0"
       d="m 14.236541,18.857094 c -0.277262,0.0085 -0.946655,-1.112995 -1.080748,-1.355824 -0.144109,-0.260968 -0.776321,-1.489096 -0.635282,-1.751735 0.131237,-0.244385 1.43721,-0.26333 1.714553,-0.258043 0.29806,0.0057 1.677755,0.07223 1.834688,0.325697 0.146025,0.235847 -0.490555,1.376326 -0.633805,1.613868 -0.15395,0.255286 -0.901434,1.416862 -1.199406,1.426037 z"
       inkscape:transform-center-x="0.0059679529"
       inkscape:transform-center-y="0.79647891"
       transform="matrix(0.92604451,-0.04635016,-0.10700146,-2.1909465,5.5980939,75.859569)" />
    <path
       id="path23"
       style="fill:#ffffff;stroke-width:0.236746"
       d="m 12.814547,7.2779016 c 0.183887,0.6666326 0.138135,1.2245996 -0.102197,1.2462546 -0.240329,0.021655 -0.879305,-0.5656266 -0.768111,-1.1678348 0.139624,-0.7561909 -0.125842,-1.2280015 0.102195,-1.2462545 0.240973,-0.019293 0.584225,0.5012022 0.768113,1.1678347 z"
       sodipodi:nodetypes="sssss" />
    <path
       id="path24"
       style="fill:#ffffff;stroke-width:0.236746"
       d="M 26.060478,7.1605925 C 25.876591,7.8272251 25.922343,8.3851921 26.162675,8.4068471 26.403004,8.4285021 27.04198,7.8412205 26.930786,7.2390123 26.791162,6.4828214 27.056628,6.0110108 26.828591,5.9927578 26.587618,5.9734648 26.244366,6.49396 26.060478,7.1605925 Z"
       sodipodi:nodetypes="sssss" />
    <ellipse
       style="fill:#ffffff;fill-opacity:1;stroke-width:0.0656109"
       id="ellipse27"
       cx="5.6427941"
       cy="12.393545"
       rx="0.69836503"
       ry="0.32035196"
       transform="matrix(-0.46455516,0.88554418,0.88641332,0.46289461,0,0)" />
    <ellipse
       style="fill:#ffffff;fill-opacity:1;stroke-width:0.0656109"
       id="ellipse28"
       cx="23.8694"
       cy="-22.16049"
       rx="0.69836503"
       ry="0.32035196"
       transform="matrix(0.46455516,0.88554418,-0.88641332,0.46289461,0,0)" />
  </g>
</svg>
