<?xml version="1.0" encoding="UTF-8" standalone="no"?>
<!-- Created with Inkscape (http://www.inkscape.org/) -->

<svg
   width="40mm"
   height="20mm"
   viewBox="0 0 40 20"
   version="1.1"
   id="svg1"
   sodipodi:docname="duckbath.svg"
   inkscape:version="1.3.1 (9b9bdc1480, 2023-11-25, custom)"
   xmlns:inkscape="http://www.inkscape.org/namespaces/inkscape"
   xmlns:sodipodi="http://sodipodi.sourceforge.net/DTD/sodipodi-0.dtd"
   xmlns="http://www.w3.org/2000/svg"
   xmlns:svg="http://www.w3.org/2000/svg">
  <sodipodi:namedview
     id="namedview1"
     pagecolor="#ffffff"
     bordercolor="#000000"
     borderopacity="0.25"
     inkscape:showpageshadow="2"
     inkscape:pageopacity="0.0"
     inkscape:pagecheckerboard="0"
     inkscape:deskcolor="#d1d1d1"
     inkscape:document-units="mm"
     inkscape:zoom="11.772098"
     inkscape:cx="100.53433"
     inkscape:cy="31.005518"
     inkscape:window-width="3374"
     inkscape:window-height="1371"
     inkscape:window-x="0"
     inkscape:window-y="0"
     inkscape:window-maximized="1"
     inkscape:current-layer="layer1" />
  <defs
     id="defs1" />
  <g
     inkscape:label="Layer 1"
     inkscape:groupmode="layer"
     id="layer1">
    <path
       style="display:inline;fill:none;stroke:#000000;stroke-width:0.25914"
       d="m 24.020236,6.9778689 c 3e-4,0.062495 0.01024,0.1227588 0.01964,0.1829345 -2.049375,0.069961 -4.060425,0.070112 -6.053377,0.018604 0.10873,-0.057809 0.212757,-0.1235488 0.311609,-0.1963704 A 2.5049863,2.4963716 0 0 1 16.81241,7.4739624 2.5049863,2.4963716 0 0 1 14.402738,5.5831217 h -0.01602 C 14.54765,6.2234541 14.953306,6.751543 15.487944,7.0863892 13.615041,6.9934512 11.751796,6.8528256 9.8877686,6.6688436 9.8674936,6.6428926 9.8476498,6.616667 9.8236898,6.593396 a 0.73783709,0.72206349 0 0 1 0.2180742,0.5079793 v 0.0031 A 0.73783709,0.72206349 0 0 1 9.3048584,7.8263957 0.73783709,0.72206349 0 0 1 8.5658854,7.1055094 0.73783709,0.72206349 0 0 1 8.6754395,6.7282715 1.2223389,1.164916 0 0 1 8.29045,6.4936605 c 0.0036,0.00317 0.00618,0.0072 0.00982,0.010335 C 6.1565007,6.2655474 4.0038044,5.9741445 1.8210775,5.637382 c 0.5732299,2.9550452 -0.88191285,8.643692 1.4014648,10.42572 0.1175999,-0.471788 0.2890627,-0.848081 0.4873088,-0.998388 0.8081994,-0.612793 2.6613594,0.0468 2.8742431,1.029911 0.058319,0.26932 0.00289,0.594817 -0.1276407,0.935343 9.8171315,1.976657 20.7033975,1.364344 26.9518435,0.241846 -0.173619,-0.394334 -0.256992,-0.776617 -0.19017,-1.085205 0.212886,-0.983121 2.066038,-1.642703 2.874244,-1.029911 0.23668,0.179453 0.43517,0.6806 0.54932,1.282609 2.256091,-1.413414 1.141312,-6.714747 1.689303,-10.7611006 -4.067313,0.6890856 -7.903533,1.1259358 -11.601876,1.3513387 8e-4,-0.018032 0.0041,-0.035586 0.0041,-0.053744 a 1.356129,1.2894937 0 0 1 -0.721403,1.135848 0.70609982,0.70037557 0 0 1 0.466121,0.6537068 v 0.0031 A 0.70609982,0.70037557 0 0 1 25.773104,9.4686727 0.70609982,0.70037557 0 0 1 25.06617,8.7700073 0.70609982,0.70037557 0 0 1 25.289412,8.2589274 1.356129,1.2894937 0 0 1 24.020239,6.9778687 Z"
       id="path23" />
    <path
       style="display:inline;fill:none;stroke:#000000;stroke-width:0.25914"
       d="M 22.397599,5.3789998 C 21.927653,5.8318157 21.293242,6.092063 20.627681,6.1050537 20.122774,6.1048555 19.629086,5.9619791 19.20813,5.6942261 19.01152,6.348027 18.562329,6.873251 17.986499,7.1794067 c 1.992958,0.051509 4.003996,0.051357 6.053377,-0.018604 -0.0094,-0.060176 -0.01934,-0.1204394 -0.01964,-0.1829345 7.69e-4,-0.2823617 0.09899,-0.5566791 0.27957,-0.7808309 -0.152129,0.046961 -0.310681,0.07118 -0.470256,0.07183 -0.614229,1.29e-5 -1.172759,-0.3470783 -1.431954,-0.8898682 z"
       id="path12" />
    <path
       style="display:inline;fill:none;stroke:#000000;stroke-width:0.25914"
       d="m 10.26604,5.2534261 c 0.04766,0.1240638 0.07282,0.2549498 0.07441,0.3870565 v 0.00517 c -0.0012,0.3769943 -0.193741,0.7301329 -0.5167642,0.9477458 0.02396,0.023271 0.043804,0.049497 0.064079,0.075448 C 11.7518,6.8528292 13.615037,6.9934508 15.487944,7.0863892 14.925295,6.7339981 14.50493,6.1678965 14.362948,5.4818359 13.923292,5.7351525 13.418872,5.8700577 12.904122,5.871993 12.272,5.8704816 11.658655,5.66852 11.162109,5.2983846 c -0.134965,0.034988 -0.274603,0.0529 -0.414961,0.053227 -0.165173,-0.00883 -0.327664,-0.041987 -0.481108,-0.098185 z"
       id="path11" />
    <path
       style="display:inline;fill:none;stroke:#000000;stroke-width:0.25914"
       d="M 1.100708,3.8824504 C 0.20825185,3.9565706 0.60809851,5.4481186 1.3394531,5.5629679 3.6876006,5.9317127 5.9988699,6.2480146 8.3002686,6.5039958 8.0504042,6.2886518 7.896943,5.9818453 7.8951253,5.648234 c 0.0034,-0.037951 0.00874,-0.07572 0.01602,-0.1131713 C 7.5493964,5.5133284 7.2053535,5.3794532 6.9323934,5.1542074 6.6608334,5.377753 6.3217491,5.5064087 5.9681112,5.5200765 5.3667802,5.5192959 4.8165605,5.1868091 4.5433919,4.6591471 4.421009,4.7092619 4.2903994,4.7355591 4.1584025,4.7366618 3.8371325,4.7359266 3.5338567,4.5862877 3.3351969,4.330485 3.0880774,4.5968866 2.7439179,4.7486009 2.3833171,4.7500977 1.8197591,4.7506419 1.3428002,4.3894145 1.155485,3.8840007 1.137938,3.8843787 1.11735,3.8810707 1.100708,3.8824504 Z"
       id="path9" />
    <path
       style="display:inline;fill:none;stroke:#000000;stroke-width:0.25914"
       d="m 39.050846,3.8653971 c -0.03201,-0.00201 -0.07159,0.0027 -0.10697,0.00362 C 38.814011,4.3327675 38.410877,4.673625 37.927401,4.6741333 37.647298,4.6735672 37.37867,4.5571679 37.179643,4.3501221 37.001609,4.6167107 36.69667,4.7777372 36.369356,4.7780029 35.989805,4.7772874 35.649389,4.5598987 35.493441,4.2271322 c -0.03671,0.00359 -0.07337,0.00729 -0.110071,0.010852 C 35.175722,4.3584525 34.940773,4.434548 34.69504,4.4539917 34.60556,5.0222744 34.092024,5.4431163 33.486845,5.4441121 33.04661,5.4434129 32.640695,5.2182556 32.423861,4.854484 32.30876,4.897104 32.188457,4.923703 32.06626,4.933549 31.74463,4.931569 31.43424,4.8137547 31.190861,4.6012695 c 0.03242,0.1170916 0.04961,0.2377779 0.05116,0.3591512 v 0.00568 c -5.6e-5,0.7897923 -0.648574,1.4302154 -1.449007,1.4309205 -0.467078,-6.308e-4 -0.905262,-0.2231852 -1.17719,-0.5978964 -0.416871,0.6139397 -1.105682,0.9825796 -1.843298,0.9865031 -0.01899,-0.00303 -0.03794,-0.0063 -0.05684,-0.00982 0.01101,0.064253 0.01688,0.1292068 0.01757,0.1943034 v 0.00568 c -5.5e-5,0.018157 -0.0033,0.035712 -0.0041,0.053744 C 30.568404,6.7955447 34.553681,6.3367868 38.794569,5.6011987 39.393567,5.4973018 40.083216,3.93016 39.050884,3.8653873 Z"
       id="path8" />
    <path
       style="display:inline;fill:none;stroke:#000000;stroke-width:0.25914"
       d="M 12.892236,0.52348226 A 2.8265208,2.6744486 0 0 0 11.236523,1.0443807 1.91493,1.8179026 0 0 0 10.034013,0.64130452 1.91493,1.8179026 0 0 0 8.5782878,1.3255005 1.9598731,1.9547331 0 0 0 7.8429321,1.1808065 1.9598731,1.9547331 0 0 0 6.0445923,2.38125 1.6016276,1.5775847 0 0 0 5.9613932,2.3652303 1.6016276,1.5775847 0 0 0 4.8188273,2.8478882 1.0504902,1.064289 0 0 0 4.1542684,2.6075928 1.0504902,1.064289 0 0 0 3.5486206,2.8075806 1.3144334,1.3333819 0 0 0 2.3781494,2.0835937 1.3144334,1.3333819 0 0 0 1.0676351,3.4194295 1.3144334,1.3333819 0 0 0 2.3833171,4.7500977 1.3144334,1.3333819 0 0 0 3.3351969,4.330485 1.0504902,1.064289 0 0 0 4.1584025,4.7366618 1.0504902,1.064289 0 0 0 4.5433919,4.6591471 1.6016276,1.5775847 0 0 0 5.9681112,5.5200765 1.6016276,1.5775847 0 0 0 6.9323934,5.1542074 1.6463689,1.5548444 0 0 0 7.911145,5.5350627 1.2223389,1.164916 0 0 0 7.8951253,5.648234 1.2223389,1.164916 0 0 0 8.6754395,6.7282715 0.73783709,0.72206349 0 0 0 8.5658854,7.1055094 0.73783709,0.72206349 0 0 0 9.3048584,7.8263957 0.73783709,0.72206349 0 0 0 10.041764,7.1044759 v -0.0031 A 0.73783709,0.72206349 0 0 0 9.8236898,6.593396 1.2223389,1.164916 0 0 0 10.340454,5.6456502 v -0.00517 a 1.2223389,1.164916 0 0 0 -0.07441,-0.3870565 1.5256398,1.3851682 0 0 0 0.481108,0.098185 1.5256398,1.3851682 0 0 0 0.414961,-0.053227 2.8265208,2.6744486 0 0 0 1.742013,0.5736084 2.8265208,2.6744486 0 0 0 1.458826,-0.3901571 2.5049863,2.4963716 0 0 0 2.449462,1.9921265 2.5049863,2.4963716 0 0 0 2.39572,-1.7797363 2.5727529,2.4708464 0 0 0 1.419551,0.4108276 2.5727529,2.4708464 0 0 0 1.769918,-0.7260539 1.5794333,1.53952 0 0 0 1.431954,0.8898682 1.5794333,1.53952 0 0 0 0.470256,-0.07183 1.356129,1.2894937 0 0 0 -0.27957,0.7808309 1.356129,1.2894937 0 0 0 1.269173,1.2810587 0.70609982,0.70037557 0 0 0 -0.223242,0.5110799 0.70609982,0.70037557 0 0 0 0.706934,0.6986654 0.70609982,0.70037557 0 0 0 0.704866,-0.7002157 v -0.0031 a 0.70609982,0.70037557 0 0 0 -0.466121,-0.6537068 1.356129,1.2894937 0 0 0 0.721403,-1.135848 v -0.00568 a 1.356129,1.2894937 0 0 0 -0.01757,-0.1943034 2.2487092,2.2686928 0 0 0 0.05684,0.00982 2.2487092,2.2686928 0 0 0 1.843298,-0.9865031 1.4503018,1.4310202 0 0 0 1.17719,0.5978964 1.4503018,1.4310202 0 0 0 1.449007,-1.4309205 v -0.00568 a 1.4503018,1.4310202 0 0 0 -0.05116,-0.3591512 1.3515828,1.3657858 0 0 0 0.875399,0.3322795 1.3515828,1.3657858 0 0 0 0.357601,-0.079065 1.2237677,1.1619275 0 0 0 1.062984,0.5896281 1.2237677,1.1619275 0 0 0 1.208195,-0.9901204 1.539067,1.4133504 0 0 0 0.77773,-0.2682007 0.96658547,0.93818075 0 0 0 0.896586,0.5922119 0.96658547,0.93818075 0 0 0 0.810287,-0.4278808 1.065601,1.1194055 0 0 0 0.747758,0.3240112 A 1.065601,1.1194055 0 0 0 38.991935,3.55483 V 3.5507 A 1.065601,1.1194055 0 0 0 37.923267,2.4355103 1.065601,1.1194055 0 0 0 36.95485,3.0959351 0.96658547,0.93818075 0 0 0 36.365222,2.9016317 0.96658547,0.93818075 0 0 0 36.072734,2.9476237 1.539067,1.4133504 0 0 0 34.537944,1.6505452 1.539067,1.4133504 0 0 0 33.070333,2.6566854 1.3515828,1.3657858 0 0 0 32.644002,2.3357747 1.5986399,1.536557 0 0 0 31.084924,1.1420492 1.5986399,1.536557 0 0 0 29.880347,1.6737996 1.8749229,1.7107009 0 0 0 28.398783,1.0113078 1.8749229,1.7107009 0 0 0 26.600444,2.2603271 2.2487092,2.2686928 0 0 0 25.976192,2.4003703 1.8677785,1.6636534 0 0 0 24.515816,1.7750854 1.8677785,1.6636534 0 0 0 22.938135,2.5590169 2.5727529,2.4708464 0 0 0 20.616829,1.1637533 2.5727529,2.4708464 0 0 0 19.095475,1.6551961 1.9742046,1.9878199 0 0 0 17.783411,1.155485 1.9742046,1.9878199 0 0 0 16.250688,1.9037598 1.7231901,1.7307067 0 0 0 15.073499,1.4371216 a 1.7231901,1.7307067 0 0 0 -0.04186,0.0031 2.8265208,2.6744486 0 0 0 -2.138888,-0.91673994 z"
       id="path7" />
    <path
       style="display:inline;fill:none;stroke:#000000;stroke-width:0.25914"
       d="m 3.7096446,15.064604 c 0.808205,-0.612793 2.661739,0.04697 2.8746248,1.030092 0.2038309,0.941301 -0.9848371,2.564742 -1.8950563,3.142446 -0.3803765,0.241422 -1.0525049,0.169555 -1.2877618,-0.19502 -0.648141,-1.004417 -0.2917963,-3.522598 0.3081933,-3.977518 z"
       id="path6" />
    <path
       style="display:inline;fill:none;stroke:#000000;stroke-width:0.25914"
       d="m 36.092541,15.15665 c -0.808206,-0.612792 -2.661739,0.04697 -2.874625,1.030092 -0.203831,0.941301 0.984838,2.564742 1.895057,3.142446 0.380377,0.241421 1.052504,0.169556 1.287762,-0.195019 0.648141,-1.004418 0.291796,-3.5226 -0.308194,-3.977519 z"
       id="path10" />
    <path
       id="path1"
       style="display:inline;fill:none;stroke:#000000;stroke-width:0.25914"
       d="M 12.835938,-0.00195313 C 12.242899,-0.03176442 11.647562,0.29069992 11.14228,0.39621421 10.298141,-0.06970779 9.1540564,0.07883791 8.4472656,0.734375 7.4321139,0.46453835 6.2506646,0.93866432 5.7402344,1.8632812 5.2029294,1.8441494 4.8978171,2.1278212 4.3041908,2.0962088 3.6577013,2.0617813 3.3982216,1.7543374 2.8470253,1.6339149 1.6911476,1.2577214 0.44609435,2.331303 0.546875,3.515625 -0.44049352,4.2219346 0.20291975,5.9979061 1.3535156,6.0996094 1.6961099,9.0762434 0.84508043,12.187545 1.8770125,15.07632 c 0.1303825,0.483746 0.5800064,0.865153 0.7460344,1.271336 -0.1381338,1.083573 -0.2451375,2.425784 0.5917969,3.257813 0.8478133,0.658877 1.9730763,0.141343 2.5648333,-0.607475 0.3864318,-0.411089 0.7273635,-0.868653 0.9859479,-1.371041 7.954871,1.485894 16.148057,1.547612 24.167969,0.560547 0.727139,-0.102795 1.454992,-0.199213 2.177734,-0.330078 0.579406,0.916544 1.329529,2.030177 2.501953,2.142578 1.04368,0.08817 1.608149,-0.972156 1.629388,-1.882384 0.126009,-0.488684 -0.09852,-1.079665 0.04672,-1.510442 1.345626,-1.327259 1.303866,-3.389717 1.380596,-5.148423 C 38.706143,9.6842277 38.620653,7.9026619 38.8125,6.1347656 39.893152,5.9457725 40.622191,4.2355661 39.648438,3.5039062 39.363932,3.2238007 39.411468,2.5963642 38.984658,2.3310765 38.373345,1.7295739 37.315162,1.8079703 36.757812,2.4277344 36.25941,2.4300245 36.195842,1.7698515 35.758922,1.5147639 34.877845,1.0003628 33.668558,1.0283278 32.990234,1.8027344 32.491074,0.66077788 30.893744,0.27305785 29.886719,0.98046875 28.7615,0.09084343 26.841204,0.46124952 26.242188,1.7988281 25.783591,1.6764416 25.302875,1.2361028 24.740302,1.2708008 24.130332,1.1955475 23.515784,1.4071963 23.009766,1.7382812 22.094012,0.63788519 20.369748,0.3056469 19.123047,1.03125 18.256861,0.43733645 16.99055,0.52605026 16.208984,1.21875 15.70497,0.92063105 15.188277,0.89516082 14.699219,0.48632812 14.189001,0.05980689 13.504423,0.00106097 12.835938,-0.00195313 Z"
       sodipodi:nodetypes="ccccsccccccccccccccccccscccccccsc" />
  </g>
</svg>
