<?xml version="1.0" encoding="UTF-8" standalone="no"?>
<!-- Created with Inkscape (http://www.inkscape.org/) -->

<svg
   width="40mm"
   height="50mm"
   viewBox="0 0 40 50"
   version="1.1"
   id="svg1"
   inkscape:version="1.3.1 (9b9bdc1480, 2023-11-25, custom)"
   sodipodi:docname="duckjaws3-sliced.svg"
   xmlns:inkscape="http://www.inkscape.org/namespaces/inkscape"
   xmlns:sodipodi="http://sodipodi.sourceforge.net/DTD/sodipodi-0.dtd"
   xmlns="http://www.w3.org/2000/svg"
   xmlns:svg="http://www.w3.org/2000/svg">
  <sodipodi:namedview
     id="namedview1"
     pagecolor="#ffffff"
     bordercolor="#000000"
     borderopacity="0.25"
     inkscape:showpageshadow="2"
     inkscape:pageopacity="0.0"
     inkscape:pagecheckerboard="0"
     inkscape:deskcolor="#d1d1d1"
     inkscape:document-units="mm"
     inkscape:zoom="4.0747912"
     inkscape:cx="70.433057"
     inkscape:cy="91.415727"
     inkscape:window-width="1452"
     inkscape:window-height="1214"
     inkscape:window-x="26"
     inkscape:window-y="23"
     inkscape:window-maximized="0"
     inkscape:current-layer="layer1" />
  <defs
     id="defs1" />
  <g
     inkscape:label="Layer 1"
     inkscape:groupmode="layer"
     id="layer1">
    <path
       id="path1"
       style="stroke-width:0.264583"
       inkscape:transform-center-x="0.1519459"
       inkscape:transform-center-y="-3.7254648"
       d="m 15.95745,6.3489406 c -0.828535,-0.017615 -2.289641,0.7842496 -3.207442,1.4103127 -0.530351,0.3617702 -0.818356,0.8852592 -1.260455,1.3091301 -0.193837,0.185845 -0.428934,0.346975 -0.609518,0.5402606 -0.149411,0.1599196 -0.149346,0.460227 -0.198202,0.62308 -0.146361,0.487863 -0.509136,0.930656 -0.51094,0.99635 -2.0862772,3.291855 -3.0956853,8.537859 -2.4257785,9.75732 0.6279848,1.143149 6.9007725,1.254168 8.2047025,1.223948 1.390979,-0.03224 7.520743,0.02702 8.252281,-1.159245 0.694782,-1.126664 -0.669548,-6.877434 -3.032753,-9.992348 0,0 -0.299471,-0.570576 -0.338853,-0.822987 C 20.797345,10.022312 20.80156,9.7551216 20.513121,9.5230529 20.411896,9.4416107 20.276576,9.3872867 20.174248,9.3066315 19.516967,8.7885586 19.122793,8.0955659 18.42889,7.6053944 17.703807,7.0931982 16.833105,6.3675573 15.95745,6.3489406 Z"
       transform="matrix(2.3786506,0,0,3.1547615,-17.916497,-20.024303)"
       sodipodi:nodetypes="saasscssscssaas" />
    <path
       id="path8"
       style="fill:#ffffff;stroke-width:0.329168"
       d="M 27.758512 12.095386 C 27.336804 12.082239 26.879358 12.137114 26.381335 12.268502 C 23.013581 13.156977 16.37075 13.333412 12.332581 12.449369 C 6.9965399 11.281193 6.8817886 18.693385 4.1377319 23.972697 C 2.2054373 27.690253 1.1535966 33.465708 3.1217733 37.693306 C 5.6387328 43.099678 8.989924 47.07195 13.773319 45.570862 C 17.044263 44.544399 21.128981 44.250161 25.440824 45.697986 C 30.66929 47.453591 33.922841 41.66321 36.251017 36.009172 C 38.001887 31.75714 37.335136 27.219609 35.300688 23.543783 C 32.614905 18.691132 31.83503 12.222472 27.758512 12.095386 z M 26.261963 15.692582 C 30.446321 15.689584 33.253849 20.468021 34.049601 24.981938 C 34.621871 28.228147 35.728719 31.462924 35.073311 34.735347 C 34.080075 39.69454 29.899743 44.163016 25.053251 42.716772 C 21.056416 41.524076 17.268646 41.76334 14.237891 42.612386 C 9.3677104 43.976737 4.7740512 40.29963 4.3806112 35.257279 C 4.1133641 31.832226 5.0027749 28.406991 5.4932048 24.981938 C 6.2100964 19.975325 9.6583327 14.883494 14.622363 15.852262 C 18.364991 16.582665 21.798208 16.584176 24.919926 15.852262 C 25.381565 15.744027 25.829098 15.692892 26.261963 15.692582 z " />
    <path
       id="path9"
       style="fill:#2d2d2d;fill-opacity:1;stroke-width:0.225435"
       d="M 24.843445 19.475814 C 24.71952 19.49087 24.596609 19.502504 24.470341 19.52439 C 24.195736 19.571986 23.914789 19.608759 23.634733 19.646863 C 23.439694 20.383315 23.238998 21.0721 23.158793 21.335649 C 22.986967 21.900248 22.146603 24.51938 21.887036 24.561808 C 21.608081 24.607406 21.121718 22.212887 21.024556 21.684465 C 20.976815 21.424758 20.847982 20.641933 20.762557 19.878373 C 20.343972 19.888961 19.920551 19.8911 19.491833 19.884058 C 19.446952 20.59596 19.366654 21.304075 19.334737 21.545972 C 19.266741 22.06131 18.912376 24.395954 18.630904 24.351485 C 18.368995 24.310107 17.383851 21.756044 17.180863 21.205424 C 17.09303 20.967134 16.880777 20.37249 16.662549 19.715076 C 16.1424 19.662116 15.617795 19.601428 15.083834 19.52439 C 15.083316 19.524315 15.082801 19.524464 15.082284 19.52439 C 15.057904 19.840847 15.033303 20.099879 15.019238 20.228739 C 14.961225 20.760317 14.649845 23.184352 14.354163 23.234757 C 14.07902 23.281671 12.982799 21.090366 12.756327 20.614762 C 12.677621 20.449487 12.50672 20.077393 12.316561 19.642212 C 11.830237 19.760595 11.368978 19.9282 10.936283 20.138822 C 10.935284 20.318994 10.93441 20.516978 10.932666 20.604944 C 10.921776 21.154124 10.841289 23.689316 10.647412 23.934973 C 10.467011 24.163557 9.624283 22.790609 9.4490356 22.484932 C 9.3688365 22.345056 9.1679628 21.974837 8.9632772 21.556824 C 7.8137639 22.708787 7.0487561 24.197925 6.7623779 25.676469 C 6.3153471 27.984447 5.5048889 30.292618 5.7484863 32.600594 C 5.8154601 33.23513 6.0160256 33.837466 6.3267456 34.391699 C 6.5439679 34.210084 6.7326723 34.061824 6.8181885 33.997925 C 7.0669757 33.812025 8.2360918 33.000294 8.3390259 33.26877 C 8.4393756 33.530513 7.9259665 35.335299 7.7209757 36.021057 C 8.031981 36.275175 8.3735003 36.505379 8.7390015 36.709904 C 8.7452697 36.694481 8.7554704 36.667842 8.7607056 36.655127 C 8.9275674 36.249848 9.7384446 34.400327 9.9585653 34.540011 C 10.160511 34.668155 10.418113 36.541808 10.527523 37.436475 C 11.069542 37.585395 11.640847 37.680863 12.229228 37.722762 C 12.258934 37.609031 12.284031 37.513293 12.301575 37.449394 C 12.438362 36.951163 13.116243 34.651605 13.370243 34.67747 C 13.63793 34.704728 14.237112 37.026355 14.380001 37.618892 C 14.497666 37.599227 14.615359 37.581342 14.733468 37.556881 C 15.087826 37.483491 15.454502 37.417208 15.830558 37.358443 C 15.862432 37.166929 15.890742 37.000241 15.908073 36.905241 C 16.006266 36.366999 16.506164 33.878898 16.763835 33.884753 C 16.85423 33.886807 17.002782 34.157971 17.166911 34.53846 C 17.898365 34.535314 21.081855 34.52938 21.758362 34.544661 C 21.93261 34.144751 22.089828 33.855351 22.183142 33.853231 C 22.440868 33.847376 22.916923 36.335997 23.009965 36.874235 C 23.026964 36.972571 23.055525 37.147075 23.086963 37.348108 C 23.509255 37.412535 23.935331 37.49143 24.363888 37.581169 C 24.377379 37.511766 24.391192 37.439928 24.400061 37.397201 C 24.506074 36.886459 25.032499 34.567165 25.308016 34.577734 C 25.564384 34.587569 26.348658 36.964246 26.508459 37.477816 C 26.531572 37.552095 26.566597 37.667761 26.607678 37.805961 C 27.240029 37.778537 27.84877 37.669566 28.428756 37.49797 C 28.539547 36.595542 28.794683 34.750925 28.995129 34.623726 C 29.214372 34.484602 30.018586 36.317023 30.189889 36.732125 C 30.597311 36.491588 30.978024 36.215949 31.330904 35.914604 C 31.222028 35.173229 30.995348 33.460001 31.127816 33.229496 C 31.268605 32.984512 32.307503 33.935378 32.526697 34.15037 C 32.569215 34.192074 32.645404 34.269775 32.732369 34.360693 C 33.186561 33.698133 33.526965 32.981832 33.72559 32.248678 C 34.322995 30.043552 33.313419 27.863931 32.791797 25.676469 C 32.458821 24.280139 31.739068 22.84722 30.689083 21.705135 C 30.419433 22.165432 30.139217 22.589218 30.035893 22.738664 C 29.834448 23.030021 28.874361 24.334781 28.714526 24.094653 C 28.542761 23.836598 28.684564 21.310855 28.721761 20.764107 C 28.72904 20.657114 28.746548 20.434162 28.76672 20.197217 C 28.410027 20.004796 28.035484 19.839499 27.639657 19.714559 C 27.460177 20.162101 27.297612 20.545677 27.223145 20.714498 C 27.013328 21.190092 25.994079 23.381407 25.717293 23.334493 C 25.419842 23.284075 25.023426 20.860044 24.946798 20.328475 C 24.925485 20.180624 24.884479 19.8576 24.843445 19.475814 z " />
    <path
       sodipodi:type="star"
       style="fill:#a3a3a3;fill-opacity:1;stroke-width:0.264583"
       id="path2"
       inkscape:flatsided="false"
       sodipodi:sides="3"
       sodipodi:cx="14.275601"
       sodipodi:cy="16.80794"
       sodipodi:r1="2.0495272"
       sodipodi:r2="1.3170718"
       sodipodi:arg1="1.5898557"
       sodipodi:arg2="2.5872109"
       inkscape:rounded="0.15998591"
       inkscape:randomized="0"
       d="m 14.236541,18.857094 c -0.277262,0.0085 -0.946655,-1.112995 -1.080748,-1.355824 -0.144109,-0.260968 -0.776321,-1.489096 -0.635282,-1.751735 0.131237,-0.244385 1.43721,-0.26333 1.714553,-0.258043 0.29806,0.0057 1.677755,0.07223 1.834688,0.325697 0.146025,0.235847 -0.490555,1.376326 -0.633805,1.613868 -0.15395,0.255286 -0.901434,1.416862 -1.199406,1.426037 z"
       inkscape:transform-center-x="0.80346065"
       inkscape:transform-center-y="-0.69410175"
       transform="matrix(1.0040038,-0.10707033,0.37821447,2.0177163,-7.071322,-13.289454)" />
    <path
       sodipodi:type="star"
       style="fill:#a3a3a3;fill-opacity:1;stroke-width:0.264583"
       id="path3"
       inkscape:flatsided="false"
       sodipodi:sides="3"
       sodipodi:cx="14.275601"
       sodipodi:cy="16.80794"
       sodipodi:r1="2.0495272"
       sodipodi:r2="1.3170718"
       sodipodi:arg1="1.5898557"
       sodipodi:arg2="2.5872109"
       inkscape:rounded="0.15998591"
       inkscape:randomized="0"
       d="m 14.236541,18.857094 c -0.277262,0.0085 -0.946655,-1.112995 -1.080748,-1.355824 -0.144109,-0.260968 -0.776321,-1.489096 -0.635282,-1.751735 0.131237,-0.244385 1.43721,-0.26333 1.714553,-0.258043 0.29806,0.0057 1.677755,0.07223 1.834688,0.325697 0.146025,0.235847 -0.490555,1.376326 -0.633805,1.613868 -0.15395,0.255286 -0.901434,1.416862 -1.199406,1.426037 z"
       inkscape:transform-center-x="-0.69626491"
       inkscape:transform-center-y="-0.69410175"
       transform="matrix(-1.0077531,-0.10707033,-0.30755887,2.0177163,45.863688,-13.189519)" />
    <path
       sodipodi:type="star"
       style="fill:#a3a3a3;fill-opacity:1;stroke-width:0.264583"
       id="path4"
       inkscape:flatsided="false"
       sodipodi:sides="3"
       sodipodi:cx="14.275601"
       sodipodi:cy="16.80794"
       sodipodi:r1="2.0495272"
       sodipodi:r2="1.3170718"
       sodipodi:arg1="1.5898557"
       sodipodi:arg2="2.5872109"
       inkscape:rounded="0.15998591"
       inkscape:randomized="0"
       d="m 14.236541,18.857094 c -0.277262,0.0085 -0.946655,-1.112995 -1.080748,-1.355824 -0.144109,-0.260968 -0.776321,-1.489096 -0.635282,-1.751735 0.131237,-0.244385 1.43721,-0.26333 1.714553,-0.258043 0.29806,0.0057 1.677755,0.07223 1.834688,0.325697 0.146025,0.235847 -0.490555,1.376326 -0.633805,1.613868 -0.15395,0.255286 -0.901434,1.416862 -1.199406,1.426037 z"
       inkscape:transform-center-x="-0.73231888"
       inkscape:transform-center-y="-0.86908979"
       transform="matrix(-0.59195624,-0.81525474,-0.50268807,1.6500683,46.621391,4.5856605)" />
    <path
       sodipodi:type="star"
       style="fill:#a3a3a3;fill-opacity:1;stroke-width:0.264583"
       id="path5"
       inkscape:flatsided="false"
       sodipodi:sides="3"
       sodipodi:cx="14.275601"
       sodipodi:cy="16.80794"
       sodipodi:r1="2.0495272"
       sodipodi:r2="1.3170718"
       sodipodi:arg1="1.5898557"
       sodipodi:arg2="2.5872109"
       inkscape:rounded="0.15998591"
       inkscape:randomized="0"
       d="m 14.236541,18.857094 c -0.277262,0.0085 -0.946655,-1.112995 -1.080748,-1.355824 -0.144109,-0.260968 -0.776321,-1.489096 -0.635282,-1.751735 0.131237,-0.244385 1.43721,-0.26333 1.714553,-0.258043 0.29806,0.0057 1.677755,0.07223 1.834688,0.325697 0.146025,0.235847 -0.490555,1.376326 -0.633805,1.613868 -0.15395,0.255286 -0.901434,1.416862 -1.199406,1.426037 z"
       inkscape:transform-center-x="0.67193422"
       inkscape:transform-center-y="-0.85364196"
       transform="matrix(0.66162701,-0.77253162,0.35633742,1.6854125,-5.4915021,3.1512112)" />
    <path
       sodipodi:type="star"
       style="fill:#a3a3a3;fill-opacity:1;stroke-width:0.264583"
       id="path6"
       inkscape:flatsided="false"
       sodipodi:sides="3"
       sodipodi:cx="14.275601"
       sodipodi:cy="16.80794"
       sodipodi:r1="2.0495272"
       sodipodi:r2="1.3170718"
       sodipodi:arg1="1.5898557"
       sodipodi:arg2="2.5872109"
       inkscape:rounded="0.15998591"
       inkscape:randomized="0"
       d="m 14.236541,18.857094 c -0.277262,0.0085 -0.946655,-1.112995 -1.080748,-1.355824 -0.144109,-0.260968 -0.776321,-1.489096 -0.635282,-1.751735 0.131237,-0.244385 1.43721,-0.26333 1.714553,-0.258043 0.29806,0.0057 1.677755,0.07223 1.834688,0.325697 0.146025,0.235847 -0.490555,1.376326 -0.633805,1.613868 -0.15395,0.255286 -0.901434,1.416862 -1.199406,1.426037 z"
       inkscape:transform-center-x="-0.49146267"
       inkscape:transform-center-y="-0.90230968"
       transform="matrix(-0.94195247,0.22087066,-0.18744404,2.2031626,38.831586,-20.128092)" />
    <path
       sodipodi:type="star"
       style="fill:#a3a3a3;fill-opacity:1;stroke-width:0.264583"
       id="path7"
       inkscape:flatsided="false"
       sodipodi:sides="3"
       sodipodi:cx="14.275601"
       sodipodi:cy="16.80794"
       sodipodi:r1="2.0495272"
       sodipodi:r2="1.3170718"
       sodipodi:arg1="1.5898557"
       sodipodi:arg2="2.5872109"
       inkscape:rounded="0.15998591"
       inkscape:randomized="0"
       d="m 14.236541,18.857094 c -0.277262,0.0085 -0.946655,-1.112995 -1.080748,-1.355824 -0.144109,-0.260968 -0.776321,-1.489096 -0.635282,-1.751735 0.131237,-0.244385 1.43721,-0.26333 1.714553,-0.258043 0.29806,0.0057 1.677755,0.07223 1.834688,0.325697 0.146025,0.235847 -0.490555,1.376326 -0.633805,1.613868 -0.15395,0.255286 -0.901434,1.416862 -1.199406,1.426037 z"
       inkscape:transform-center-x="0.68695328"
       inkscape:transform-center-y="-0.87996826"
       transform="matrix(0.95414275,0.21540219,0.30904087,2.1486151,-0.78039607,-19.231628)" />
    <path
       sodipodi:type="star"
       style="fill:#a3a3a3;fill-opacity:1;stroke-width:0.264583"
       id="path10"
       inkscape:flatsided="false"
       sodipodi:sides="3"
       sodipodi:cx="14.275601"
       sodipodi:cy="16.80794"
       sodipodi:r1="2.0495272"
       sodipodi:r2="1.3170718"
       sodipodi:arg1="1.5898557"
       sodipodi:arg2="2.5872109"
       inkscape:rounded="0.15998591"
       inkscape:randomized="0"
       d="m 14.236541,18.857094 c -0.277262,0.0085 -0.946655,-1.112995 -1.080748,-1.355824 -0.144109,-0.260968 -0.776321,-1.489096 -0.635282,-1.751735 0.131237,-0.244385 1.43721,-0.26333 1.714553,-0.258043 0.29806,0.0057 1.677755,0.07223 1.834688,0.325697 0.146025,0.235847 -0.490555,1.376326 -0.633805,1.613868 -0.15395,0.255286 -0.901434,1.416862 -1.199406,1.426037 z"
       inkscape:transform-center-x="-0.5537252"
       inkscape:transform-center-y="0.74257636"
       transform="matrix(-0.80144531,0.4448394,-0.24459524,-1.9146317,45.017403,64.394922)" />
    <path
       sodipodi:type="star"
       style="fill:#a3a3a3;fill-opacity:1;stroke-width:0.264583"
       id="path11"
       inkscape:flatsided="false"
       sodipodi:sides="3"
       sodipodi:cx="14.275601"
       sodipodi:cy="16.80794"
       sodipodi:r1="2.0495272"
       sodipodi:r2="1.3170718"
       sodipodi:arg1="1.5898557"
       sodipodi:arg2="2.5872109"
       inkscape:rounded="0.15998591"
       inkscape:randomized="0"
       d="m 14.236541,18.857094 c -0.277262,0.0085 -0.946655,-1.112995 -1.080748,-1.355824 -0.144109,-0.260968 -0.776321,-1.489096 -0.635282,-1.751735 0.131237,-0.244385 1.43721,-0.26333 1.714553,-0.258043 0.29806,0.0057 1.677755,0.07223 1.834688,0.325697 0.146025,0.235847 -0.490555,1.376326 -0.633805,1.613868 -0.15395,0.255286 -0.901434,1.416862 -1.199406,1.426037 z"
       inkscape:transform-center-x="-0.70812855"
       inkscape:transform-center-y="0.81124628"
       transform="matrix(-0.52662584,0.84200255,-0.61185763,-1.3503254,50.163109,46.705661)" />
    <path
       sodipodi:type="star"
       style="fill:#a3a3a3;fill-opacity:1;stroke-width:0.264583"
       id="path13"
       inkscape:flatsided="false"
       sodipodi:sides="3"
       sodipodi:cx="14.275601"
       sodipodi:cy="16.80794"
       sodipodi:r1="2.0495272"
       sodipodi:r2="1.3170718"
       sodipodi:arg1="1.5898557"
       sodipodi:arg2="2.5872109"
       inkscape:rounded="0.15998591"
       inkscape:randomized="0"
       d="m 14.236541,18.857094 c -0.277262,0.0085 -0.946655,-1.112995 -1.080748,-1.355824 -0.144109,-0.260968 -0.776321,-1.489096 -0.635282,-1.751735 0.131237,-0.244385 1.43721,-0.26333 1.714553,-0.258043 0.29806,0.0057 1.677755,0.07223 1.834688,0.325697 0.146025,0.235847 -0.490555,1.376326 -0.633805,1.613868 -0.15395,0.255286 -0.901434,1.416862 -1.199406,1.426037 z"
       inkscape:transform-center-x="-0.42002314"
       inkscape:transform-center-y="0.77468989"
       transform="matrix(-0.92910816,-0.09891701,-0.14502609,-2.0603178,41.269939,74.83741)" />
    <path
       sodipodi:type="star"
       style="fill:#a3a3a3;fill-opacity:1;stroke-width:0.264583"
       id="path16"
       inkscape:flatsided="false"
       sodipodi:sides="3"
       sodipodi:cx="14.275601"
       sodipodi:cy="16.80794"
       sodipodi:r1="2.0495272"
       sodipodi:r2="1.3170718"
       sodipodi:arg1="1.5898557"
       sodipodi:arg2="2.5872109"
       inkscape:rounded="0.15998591"
       inkscape:randomized="0"
       d="m 14.236541,18.857094 c -0.277262,0.0085 -0.946655,-1.112995 -1.080748,-1.355824 -0.144109,-0.260968 -0.776321,-1.489096 -0.635282,-1.751735 0.131237,-0.244385 1.43721,-0.26333 1.714553,-0.258043 0.29806,0.0057 1.677755,0.07223 1.834688,0.325697 0.146025,0.235847 -0.490555,1.376326 -0.633805,1.613868 -0.15395,0.255286 -0.901434,1.416862 -1.199406,1.426037 z"
       inkscape:transform-center-x="0.028223062"
       inkscape:transform-center-y="0.79647891"
       transform="matrix(-0.92560091,-0.04635016,0.12797024,-2.1909465,32.947481,75.828117)" />
    <path
       sodipodi:type="star"
       style="fill:#a3a3a3;fill-opacity:1;stroke-width:0.264583"
       id="path19"
       inkscape:flatsided="false"
       sodipodi:sides="3"
       sodipodi:cx="14.275601"
       sodipodi:cy="16.80794"
       sodipodi:r1="2.0495272"
       sodipodi:r2="1.3170718"
       sodipodi:arg1="1.5898557"
       sodipodi:arg2="2.5872109"
       inkscape:rounded="0.15998591"
       inkscape:randomized="0"
       d="m 14.236541,18.857094 c -0.277262,0.0085 -0.946655,-1.112995 -1.080748,-1.355824 -0.144109,-0.260968 -0.776321,-1.489096 -0.635282,-1.751735 0.131237,-0.244385 1.43721,-0.26333 1.714553,-0.258043 0.29806,0.0057 1.677755,0.07223 1.834688,0.325697 0.146025,0.235847 -0.490555,1.376326 -0.633805,1.613868 -0.15395,0.255286 -0.901434,1.416862 -1.199406,1.426037 z"
       inkscape:transform-center-x="0.55372535"
       inkscape:transform-center-y="0.74257636"
       transform="matrix(0.80144531,0.4448394,0.24459524,-1.9146317,-6.0638302,64.311475)" />
    <path
       sodipodi:type="star"
       style="fill:#a3a3a3;fill-opacity:1;stroke-width:0.264583"
       id="path20"
       inkscape:flatsided="false"
       sodipodi:sides="3"
       sodipodi:cx="14.275601"
       sodipodi:cy="16.80794"
       sodipodi:r1="2.0495272"
       sodipodi:r2="1.3170718"
       sodipodi:arg1="1.5898557"
       sodipodi:arg2="2.5872109"
       inkscape:rounded="0.15998591"
       inkscape:randomized="0"
       d="m 14.236541,18.857094 c -0.277262,0.0085 -0.946655,-1.112995 -1.080748,-1.355824 -0.144109,-0.260968 -0.776321,-1.489096 -0.635282,-1.751735 0.131237,-0.244385 1.43721,-0.26333 1.714553,-0.258043 0.29806,0.0057 1.677755,0.07223 1.834688,0.325697 0.146025,0.235847 -0.490555,1.376326 -0.633805,1.613868 -0.15395,0.255286 -0.901434,1.416862 -1.199406,1.426037 z"
       inkscape:transform-center-x="0.6303414"
       inkscape:transform-center-y="0.84342401"
       transform="matrix(0.39606911,0.92896759,0.80583017,-1.2785416,-12.495239,44.152948)" />
    <path
       sodipodi:type="star"
       style="fill:#a3a3a3;fill-opacity:1;stroke-width:0.264583"
       id="path21"
       inkscape:flatsided="false"
       sodipodi:sides="3"
       sodipodi:cx="14.275601"
       sodipodi:cy="16.80794"
       sodipodi:r1="2.0495272"
       sodipodi:r2="1.3170718"
       sodipodi:arg1="1.5898557"
       sodipodi:arg2="2.5872109"
       inkscape:rounded="0.15998591"
       inkscape:randomized="0"
       d="m 14.236541,18.857094 c -0.277262,0.0085 -0.946655,-1.112995 -1.080748,-1.355824 -0.144109,-0.260968 -0.776321,-1.489096 -0.635282,-1.751735 0.131237,-0.244385 1.43721,-0.26333 1.714553,-0.258043 0.29806,0.0057 1.677755,0.07223 1.834688,0.325697 0.146025,0.235847 -0.490555,1.376326 -0.633805,1.613868 -0.15395,0.255286 -0.901434,1.416862 -1.199406,1.426037 z"
       inkscape:transform-center-x="0.27268452"
       inkscape:transform-center-y="0.72842663"
       transform="matrix(0.91785853,0.02960329,0.05645548,-2.0681197,-0.76148556,73.254762)" />
    <path
       sodipodi:type="star"
       style="fill:#a3a3a3;fill-opacity:1;stroke-width:0.264583"
       id="path22"
       inkscape:flatsided="false"
       sodipodi:sides="3"
       sodipodi:cx="14.275601"
       sodipodi:cy="16.80794"
       sodipodi:r1="2.0495272"
       sodipodi:r2="1.3170718"
       sodipodi:arg1="1.5898557"
       sodipodi:arg2="2.5872109"
       inkscape:rounded="0.15998591"
       inkscape:randomized="0"
       d="m 14.236541,18.857094 c -0.277262,0.0085 -0.946655,-1.112995 -1.080748,-1.355824 -0.144109,-0.260968 -0.776321,-1.489096 -0.635282,-1.751735 0.131237,-0.244385 1.43721,-0.26333 1.714553,-0.258043 0.29806,0.0057 1.677755,0.07223 1.834688,0.325697 0.146025,0.235847 -0.490555,1.376326 -0.633805,1.613868 -0.15395,0.255286 -0.901434,1.416862 -1.199406,1.426037 z"
       inkscape:transform-center-x="0.0059679529"
       inkscape:transform-center-y="0.79647891"
       transform="matrix(0.92604451,-0.04635016,-0.10700146,-2.1909465,5.5980939,75.859569)" />
    <path
       id="path23"
       style="fill:#ffffff;stroke-width:0.236746"
       d="m 12.814547,7.2779016 c 0.183887,0.6666326 0.138135,1.2245996 -0.102197,1.2462546 -0.240329,0.021655 -0.879305,-0.5656266 -0.768111,-1.1678348 0.139624,-0.7561909 -0.125842,-1.2280015 0.102195,-1.2462545 0.240973,-0.019293 0.584225,0.5012022 0.768113,1.1678347 z"
       sodipodi:nodetypes="sssss" />
    <path
       id="path24"
       style="fill:#ffffff;stroke-width:0.236746"
       d="M 26.060478,7.1605925 C 25.876591,7.8272251 25.922343,8.3851921 26.162675,8.4068471 26.403004,8.4285021 27.04198,7.8412205 26.930786,7.2390123 26.791162,6.4828214 27.056628,6.0110108 26.828591,5.9927578 26.587618,5.9734648 26.244366,6.49396 26.060478,7.1605925 Z"
       sodipodi:nodetypes="sssss" />
    <ellipse
       style="fill:#ffffff;fill-opacity:1;stroke-width:0.0656109"
       id="ellipse27"
       cx="5.6427941"
       cy="12.393545"
       rx="0.69836503"
       ry="0.32035196"
       transform="matrix(-0.46455516,0.88554418,0.88641332,0.46289461,0,0)" />
    <ellipse
       style="fill:#ffffff;fill-opacity:1;stroke-width:0.0656109"
       id="ellipse28"
       cx="23.8694"
       cy="-22.16049"
       rx="0.69836503"
       ry="0.32035196"
       transform="matrix(0.46455516,0.88554418,-0.88641332,0.46289461,0,0)" />
  </g>
</svg>
